<svg xmlns="http://www.w3.org/2000/svg" viewBox="0 0 262 269" width="262" height="269">
  <path d="M 225.0 160.0 L 219.0 159.0 L 218.0 160.0 L 215.0 160.0 L 210.0 163.0 L 206.0 167.0 L 198.0 179.0 L 190.0 194.0 L 189.0 201.0 L 191.0 206.0 L 196.0 211.0 L 201.0 214.0 L 203.0 214.0 L 204.0 215.0 L 215.0 215.0 L 218.0 213.0 L 220.0 213.0 L 226.0 209.0 L 235.0 200.0 L 239.0 194.0 L 239.0 192.0 L 241.0 188.0 L 241.0 177.0 L 238.0 171.0 L 230.0 163.0 Z M 172.0 28.0 L 169.0 28.0 L 165.0 26.0 L 162.0 26.0 L 161.0 25.0 L 158.0 25.0 L 153.0 23.0 L 141.0 22.0 L 140.0 21.0 L 130.0 21.0 L 129.0 20.0 L 110.0 20.0 L 109.0 21.0 L 102.0 21.0 L 101.0 22.0 L 91.0 23.0 L 90.0 24.0 L 87.0 24.0 L 86.0 25.0 L 81.0 26.0 L 66.0 33.0 L 56.0 40.0 L 41.0 56.0 L 30.0 76.0 L 30.0 78.0 L 28.0 81.0 L 28.0 83.0 L 26.0 87.0 L 24.0 98.0 L 23.0 99.0 L 22.0 112.0 L 21.0 113.0 L 21.0 124.0 L 20.0 125.0 L 21.0 150.0 L 22.0 151.0 L 23.0 162.0 L 24.0 163.0 L 24.0 167.0 L 26.0 171.0 L 27.0 178.0 L 28.0 179.0 L 29.0 184.0 L 31.0 187.0 L 31.0 189.0 L 34.0 194.0 L 34.0 196.0 L 36.0 198.0 L 40.0 207.0 L 42.0 209.0 L 47.0 218.0 L 62.0 234.0 L 78.0 244.0 L 80.0 244.0 L 83.0 246.0 L 86.0 246.0 L 87.0 247.0 L 91.0 247.0 L 92.0 248.0 L 107.0 248.0 L 108.0 247.0 L 113.0 247.0 L 129.0 240.0 L 141.0 231.0 L 141.0 230.0 L 143.0 229.0 L 156.0 216.0 L 156.0 215.0 L 163.0 207.0 L 163.0 203.0 L 153.0 191.0 L 148.0 181.0 L 148.0 178.0 L 147.0 177.0 L 147.0 168.0 L 151.0 159.0 L 156.0 154.0 L 165.0 150.0 L 175.0 149.0 L 176.0 150.0 L 183.0 150.0 L 188.0 152.0 L 195.0 151.0 L 198.0 148.0 L 203.0 138.0 L 205.0 136.0 L 219.0 107.0 L 219.0 105.0 L 221.0 102.0 L 221.0 100.0 L 224.0 93.0 L 224.0 89.0 L 225.0 88.0 L 225.0 72.0 L 224.0 71.0 L 223.0 65.0 L 220.0 59.0 L 209.0 47.0 L 202.0 42.0 L 199.0 41.0 L 197.0 39.0 L 195.0 39.0 L 189.0 35.0 L 187.0 35.0 L 182.0 32.0 L 180.0 32.0 Z" fill="#0F6B4F" fill-rule="evenodd"/>
</svg>
