<svg xmlns="http://www.w3.org/2000/svg" viewBox="0 0 1007 281" width="1007" height="281">
  <path d="M 606.0 237.0 L 610.0 238.0 L 609.0 237.0 Z M 889.0 201.0 L 888.0 203.0 L 890.0 205.0 L 891.0 203.0 L 890.0 201.0 Z M 677.0 168.0 L 676.0 169.0 L 677.0 171.0 L 676.0 169.0 Z M 225.0 160.0 L 219.0 159.0 L 218.0 160.0 L 215.0 160.0 L 211.0 163.0 L 210.0 163.0 L 206.0 167.0 L 206.0 168.0 L 198.0 179.0 L 197.0 182.0 L 195.0 184.0 L 190.0 194.0 L 189.0 201.0 L 190.0 202.0 L 191.0 206.0 L 196.0 211.0 L 197.0 211.0 L 201.0 214.0 L 203.0 214.0 L 204.0 215.0 L 215.0 215.0 L 218.0 213.0 L 220.0 213.0 L 222.0 211.0 L 226.0 209.0 L 235.0 200.0 L 235.0 199.0 L 239.0 194.0 L 239.0 192.0 L 241.0 188.0 L 241.0 177.0 L 238.0 171.0 L 230.0 163.0 L 229.0 163.0 Z M 848.0 120.0 L 844.0 125.0 L 844.0 200.0 L 845.0 201.0 L 845.0 203.0 L 848.0 209.0 L 852.0 213.0 L 858.0 216.0 L 860.0 216.0 L 861.0 217.0 L 875.0 217.0 L 879.0 215.0 L 881.0 211.0 L 881.0 202.0 L 878.0 198.0 L 875.0 198.0 L 874.0 197.0 L 869.0 197.0 L 865.0 192.0 L 865.0 126.0 L 864.0 125.0 L 864.0 123.0 L 861.0 120.0 Z M 899.0 126.0 L 897.0 129.0 L 897.0 136.0 L 899.0 140.0 L 901.0 142.0 L 903.0 143.0 L 908.0 143.0 L 910.0 141.0 L 916.0 138.0 L 922.0 137.0 L 923.0 136.0 L 938.0 136.0 L 939.0 137.0 L 942.0 137.0 L 943.0 138.0 L 942.0 139.0 L 939.0 139.0 L 944.0 140.0 L 942.0 139.0 L 943.0 138.0 L 945.0 138.0 L 947.0 140.0 L 946.0 141.0 L 947.0 142.0 L 946.0 143.0 L 947.0 142.0 L 949.0 144.0 L 950.0 143.0 L 951.0 144.0 L 952.0 148.0 L 953.0 149.0 L 953.0 157.0 L 952.0 158.0 L 922.0 158.0 L 921.0 159.0 L 915.0 159.0 L 914.0 160.0 L 908.0 161.0 L 899.0 166.0 L 894.0 172.0 L 891.0 178.0 L 891.0 181.0 L 890.0 182.0 L 890.0 195.0 L 891.0 196.0 L 891.0 199.0 L 893.0 203.0 L 896.0 206.0 L 896.0 207.0 L 902.0 212.0 L 908.0 215.0 L 910.0 215.0 L 911.0 216.0 L 914.0 216.0 L 915.0 217.0 L 934.0 217.0 L 935.0 216.0 L 940.0 215.0 L 945.0 212.0 L 948.0 213.0 L 949.0 212.0 L 948.0 213.0 L 946.0 212.0 L 955.0 204.0 L 956.0 205.0 L 956.0 207.0 L 958.0 211.0 L 961.0 214.0 L 965.0 216.0 L 967.0 216.0 L 968.0 217.0 L 980.0 217.0 L 981.0 216.0 L 983.0 216.0 L 985.0 214.0 L 985.0 212.0 L 986.0 211.0 L 986.0 205.0 L 985.0 204.0 L 985.0 202.0 L 982.0 199.0 L 978.0 199.0 L 974.0 196.0 L 974.0 149.0 L 973.0 148.0 L 973.0 144.0 L 972.0 143.0 L 971.0 138.0 L 967.0 131.0 L 960.0 124.0 L 959.0 124.0 L 957.0 122.0 L 953.0 120.0 L 948.0 119.0 L 947.0 118.0 L 942.0 118.0 L 941.0 117.0 L 924.0 117.0 L 923.0 118.0 L 918.0 118.0 L 917.0 119.0 L 914.0 119.0 L 913.0 120.0 L 908.0 121.0 Z M 911.0 182.0 L 917.0 176.0 L 921.0 175.0 L 922.0 174.0 L 927.0 174.0 L 928.0 173.0 L 941.0 173.0 L 942.0 174.0 L 943.0 173.0 L 952.0 173.0 L 953.0 174.0 L 953.0 185.0 L 952.0 186.0 L 951.0 190.0 L 945.0 196.0 L 941.0 198.0 L 939.0 198.0 L 938.0 199.0 L 935.0 199.0 L 934.0 200.0 L 922.0 200.0 L 921.0 199.0 L 919.0 199.0 L 915.0 197.0 L 911.0 192.0 Z M 946.0 141.0 L 948.0 140.0 L 950.0 142.0 L 950.0 143.0 L 949.0 144.0 Z M 721.0 117.0 L 720.0 118.0 L 716.0 118.0 L 715.0 119.0 L 710.0 120.0 L 702.0 124.0 L 700.0 126.0 L 699.0 126.0 L 689.0 136.0 L 689.0 137.0 L 685.0 142.0 L 684.0 146.0 L 681.0 152.0 L 681.0 156.0 L 680.0 157.0 L 680.0 163.0 L 679.0 164.0 L 679.0 170.0 L 680.0 171.0 L 680.0 178.0 L 681.0 179.0 L 681.0 182.0 L 682.0 183.0 L 683.0 188.0 L 686.0 194.0 L 689.0 198.0 L 688.0 199.0 L 689.0 198.0 L 693.0 203.0 L 694.0 203.0 L 699.0 208.0 L 700.0 208.0 L 707.0 213.0 L 709.0 213.0 L 715.0 216.0 L 719.0 216.0 L 720.0 217.0 L 727.0 217.0 L 728.0 218.0 L 729.0 217.0 L 731.0 218.0 L 732.0 217.0 L 738.0 217.0 L 739.0 216.0 L 743.0 216.0 L 744.0 215.0 L 749.0 214.0 L 753.0 212.0 L 758.0 208.0 L 759.0 208.0 L 766.0 202.0 L 766.0 201.0 L 770.0 197.0 L 771.0 194.0 L 773.0 192.0 L 776.0 186.0 L 776.0 184.0 L 777.0 183.0 L 777.0 179.0 L 778.0 178.0 L 778.0 172.0 L 779.0 171.0 L 779.0 162.0 L 778.0 161.0 L 778.0 156.0 L 777.0 155.0 L 777.0 152.0 L 776.0 151.0 L 775.0 146.0 L 772.0 140.0 L 770.0 138.0 L 770.0 137.0 L 759.0 126.0 L 748.0 120.0 L 742.0 119.0 L 741.0 118.0 L 737.0 118.0 L 736.0 117.0 Z M 726.0 136.0 L 732.0 136.0 L 733.0 137.0 L 737.0 137.0 L 738.0 138.0 L 740.0 138.0 L 744.0 140.0 L 747.0 143.0 L 748.0 143.0 L 755.0 152.0 L 755.0 154.0 L 757.0 157.0 L 757.0 162.0 L 758.0 163.0 L 758.0 172.0 L 757.0 173.0 L 757.0 176.0 L 756.0 177.0 L 756.0 179.0 L 755.0 180.0 L 754.0 184.0 L 746.0 193.0 L 745.0 193.0 L 741.0 196.0 L 739.0 196.0 L 735.0 198.0 L 723.0 198.0 L 712.0 193.0 L 706.0 187.0 L 705.0 184.0 L 703.0 182.0 L 703.0 180.0 L 701.0 176.0 L 701.0 171.0 L 700.0 170.0 L 701.0 159.0 L 702.0 158.0 L 702.0 155.0 L 705.0 149.0 L 713.0 141.0 L 716.0 140.0 L 718.0 138.0 L 720.0 138.0 L 721.0 137.0 L 725.0 137.0 Z M 659.0 119.0 L 651.0 119.0 L 650.0 120.0 L 648.0 120.0 L 645.0 123.0 L 645.0 125.0 L 643.0 129.0 L 636.0 123.0 L 637.0 122.0 L 636.0 121.0 L 637.0 122.0 L 635.0 123.0 L 633.0 121.0 L 634.0 120.0 L 632.0 121.0 L 631.0 120.0 L 629.0 120.0 L 625.0 118.0 L 621.0 118.0 L 620.0 117.0 L 607.0 117.0 L 606.0 118.0 L 602.0 118.0 L 601.0 119.0 L 595.0 120.0 L 593.0 122.0 L 588.0 124.0 L 578.0 133.0 L 578.0 134.0 L 574.0 139.0 L 572.0 143.0 L 572.0 145.0 L 571.0 146.0 L 571.0 148.0 L 569.0 152.0 L 569.0 156.0 L 568.0 157.0 L 568.0 175.0 L 569.0 176.0 L 569.0 180.0 L 570.0 181.0 L 571.0 186.0 L 574.0 192.0 L 576.0 194.0 L 575.0 196.0 L 576.0 197.0 L 577.0 196.0 L 579.0 198.0 L 578.0 200.0 L 577.0 199.0 L 578.0 200.0 L 579.0 199.0 L 583.0 203.0 L 582.0 204.0 L 583.0 203.0 L 590.0 208.0 L 596.0 211.0 L 601.0 212.0 L 602.0 213.0 L 607.0 213.0 L 608.0 214.0 L 619.0 214.0 L 620.0 213.0 L 628.0 212.0 L 636.0 208.0 L 643.0 202.0 L 644.0 203.0 L 644.0 221.0 L 643.0 222.0 L 643.0 224.0 L 639.0 232.0 L 635.0 236.0 L 634.0 236.0 L 630.0 239.0 L 628.0 239.0 L 627.0 240.0 L 623.0 240.0 L 622.0 241.0 L 612.0 241.0 L 611.0 240.0 L 607.0 240.0 L 606.0 239.0 L 600.0 238.0 L 596.0 235.0 L 595.0 235.0 L 589.0 230.0 L 587.0 230.0 L 586.0 229.0 L 585.0 230.0 L 582.0 230.0 L 580.0 232.0 L 579.0 232.0 L 579.0 233.0 L 576.0 236.0 L 575.0 242.0 L 577.0 246.0 L 578.0 246.0 L 582.0 250.0 L 587.0 252.0 L 589.0 254.0 L 593.0 256.0 L 598.0 257.0 L 599.0 258.0 L 602.0 258.0 L 603.0 259.0 L 610.0 259.0 L 611.0 260.0 L 623.0 260.0 L 624.0 259.0 L 634.0 258.0 L 648.0 251.0 L 652.0 247.0 L 653.0 247.0 L 653.0 246.0 L 659.0 239.0 L 662.0 233.0 L 663.0 227.0 L 664.0 226.0 L 664.0 222.0 L 665.0 221.0 L 665.0 125.0 L 664.0 123.0 Z M 575.0 196.0 L 576.0 195.0 L 577.0 196.0 L 576.0 197.0 Z M 608.0 137.0 L 611.0 137.0 L 612.0 136.0 L 620.0 136.0 L 621.0 137.0 L 625.0 137.0 L 628.0 139.0 L 630.0 139.0 L 639.0 147.0 L 644.0 157.0 L 644.0 174.0 L 643.0 175.0 L 643.0 177.0 L 640.0 183.0 L 638.0 185.0 L 638.0 186.0 L 632.0 191.0 L 628.0 193.0 L 626.0 193.0 L 625.0 194.0 L 621.0 194.0 L 620.0 195.0 L 612.0 195.0 L 611.0 194.0 L 608.0 194.0 L 600.0 190.0 L 595.0 185.0 L 590.0 175.0 L 590.0 172.0 L 589.0 171.0 L 589.0 160.0 L 590.0 159.0 L 591.0 153.0 L 595.0 146.0 L 600.0 141.0 Z M 622.0 139.0 L 624.0 140.0 L 624.0 139.0 Z M 489.0 120.0 L 481.0 124.0 L 478.0 127.0 L 477.0 127.0 L 470.0 134.0 L 470.0 135.0 L 466.0 140.0 L 463.0 146.0 L 463.0 148.0 L 461.0 152.0 L 461.0 156.0 L 460.0 157.0 L 460.0 164.0 L 459.0 165.0 L 459.0 170.0 L 460.0 171.0 L 460.0 179.0 L 461.0 180.0 L 462.0 186.0 L 469.0 199.0 L 478.0 208.0 L 489.0 214.0 L 491.0 214.0 L 495.0 216.0 L 498.0 216.0 L 499.0 217.0 L 506.0 217.0 L 507.0 218.0 L 508.0 217.0 L 520.0 217.0 L 521.0 216.0 L 525.0 216.0 L 526.0 215.0 L 531.0 214.0 L 539.0 210.0 L 545.0 205.0 L 546.0 205.0 L 547.0 203.0 L 547.0 196.0 L 543.0 191.0 L 539.0 189.0 L 536.0 189.0 L 525.0 196.0 L 519.0 197.0 L 518.0 198.0 L 513.0 198.0 L 512.0 199.0 L 507.0 199.0 L 506.0 198.0 L 498.0 197.0 L 491.0 193.0 L 486.0 188.0 L 487.0 186.0 L 486.0 187.0 L 484.0 185.0 L 482.0 181.0 L 482.0 179.0 L 481.0 178.0 L 481.0 175.0 L 482.0 174.0 L 483.0 175.0 L 547.0 175.0 L 548.0 174.0 L 550.0 174.0 L 552.0 172.0 L 552.0 170.0 L 553.0 169.0 L 553.0 157.0 L 552.0 156.0 L 552.0 150.0 L 551.0 149.0 L 550.0 144.0 L 547.0 138.0 L 541.0 131.0 L 541.0 130.0 L 534.0 124.0 L 526.0 120.0 L 524.0 120.0 L 520.0 118.0 L 516.0 118.0 L 515.0 117.0 L 500.0 117.0 L 499.0 118.0 L 495.0 118.0 L 494.0 119.0 Z M 525.0 144.0 L 526.0 143.0 L 527.0 144.0 L 526.0 145.0 Z M 524.0 143.0 L 525.0 142.0 L 526.0 143.0 L 525.0 144.0 Z M 523.0 142.0 L 524.0 141.0 L 525.0 142.0 L 524.0 143.0 Z M 481.0 155.0 L 482.0 154.0 L 482.0 152.0 L 484.0 148.0 L 492.0 140.0 L 493.0 140.0 L 495.0 138.0 L 497.0 138.0 L 501.0 136.0 L 515.0 136.0 L 523.0 140.0 L 524.0 141.0 L 522.0 142.0 L 526.0 145.0 L 527.0 144.0 L 529.0 146.0 L 531.0 150.0 L 531.0 152.0 L 532.0 153.0 L 532.0 158.0 L 531.0 159.0 L 530.0 158.0 L 482.0 158.0 L 481.0 157.0 Z M 852.0 78.0 L 851.0 79.0 L 847.0 80.0 L 844.0 83.0 L 842.0 87.0 L 842.0 95.0 L 844.0 99.0 L 851.0 104.0 L 858.0 104.0 L 859.0 103.0 L 861.0 103.0 L 863.0 101.0 L 864.0 101.0 L 865.0 99.0 L 866.0 99.0 L 867.0 95.0 L 868.0 94.0 L 868.0 88.0 L 864.0 81.0 L 863.0 81.0 L 861.0 79.0 L 859.0 79.0 L 858.0 78.0 Z M 347.0 77.0 L 344.0 80.0 L 344.0 82.0 L 343.0 83.0 L 343.0 210.0 L 344.0 211.0 L 344.0 213.0 L 346.0 215.0 L 350.0 216.0 L 351.0 217.0 L 357.0 217.0 L 358.0 216.0 L 362.0 215.0 L 365.0 211.0 L 365.0 166.0 L 366.0 165.0 L 367.0 166.0 L 388.0 166.0 L 389.0 165.0 L 393.0 170.0 L 400.0 184.0 L 402.0 186.0 L 404.0 191.0 L 406.0 193.0 L 409.0 200.0 L 411.0 202.0 L 413.0 206.0 L 417.0 210.0 L 418.0 210.0 L 425.0 215.0 L 431.0 216.0 L 432.0 217.0 L 445.0 217.0 L 449.0 215.0 L 450.0 211.0 L 451.0 210.0 L 451.0 205.0 L 450.0 204.0 L 450.0 201.0 L 451.0 200.0 L 450.0 201.0 L 446.0 197.0 L 436.0 197.0 L 434.0 196.0 L 428.0 190.0 L 427.0 188.0 L 428.0 186.0 L 427.0 187.0 L 425.0 185.0 L 424.0 182.0 L 422.0 180.0 L 420.0 175.0 L 418.0 173.0 L 416.0 169.0 L 417.0 165.0 L 419.0 164.0 L 417.0 164.0 L 416.0 163.0 L 419.0 161.0 L 421.0 161.0 L 425.0 159.0 L 427.0 157.0 L 431.0 155.0 L 437.0 149.0 L 437.0 148.0 L 441.0 143.0 L 443.0 139.0 L 444.0 134.0 L 445.0 133.0 L 446.0 135.0 L 447.0 133.0 L 447.0 130.0 L 446.0 129.0 L 446.0 112.0 L 445.0 111.0 L 445.0 108.0 L 444.0 107.0 L 443.0 102.0 L 441.0 98.0 L 435.0 90.0 L 436.0 89.0 L 435.0 88.0 L 434.0 89.0 L 425.0 82.0 L 423.0 82.0 L 418.0 79.0 L 416.0 79.0 L 415.0 78.0 L 411.0 78.0 L 410.0 77.0 L 403.0 77.0 L 402.0 76.0 L 350.0 76.0 L 349.0 77.0 Z M 413.0 164.0 L 414.0 163.0 L 416.0 163.0 L 417.0 164.0 L 416.0 165.0 L 417.0 167.0 L 416.0 168.0 Z M 446.0 129.0 L 447.0 130.0 L 447.0 133.0 L 446.0 134.0 L 445.0 133.0 L 445.0 130.0 Z M 365.0 97.0 L 366.0 96.0 L 367.0 97.0 L 368.0 96.0 L 372.0 96.0 L 373.0 97.0 L 374.0 96.0 L 376.0 97.0 L 377.0 96.0 L 392.0 96.0 L 393.0 97.0 L 394.0 96.0 L 396.0 97.0 L 400.0 97.0 L 401.0 96.0 L 402.0 97.0 L 406.0 97.0 L 407.0 98.0 L 409.0 98.0 L 415.0 101.0 L 419.0 105.0 L 423.0 112.0 L 423.0 116.0 L 424.0 117.0 L 424.0 125.0 L 423.0 126.0 L 422.0 132.0 L 417.0 138.0 L 416.0 136.0 L 414.0 138.0 L 415.0 137.0 L 417.0 138.0 L 413.0 142.0 L 409.0 144.0 L 406.0 144.0 L 405.0 145.0 L 400.0 145.0 L 399.0 146.0 L 375.0 146.0 L 374.0 145.0 L 372.0 146.0 L 366.0 146.0 L 365.0 145.0 Z M 370.0 99.0 L 368.0 99.0 L 367.0 101.0 L 369.0 99.0 Z M 434.0 89.0 L 435.0 88.0 L 436.0 89.0 L 435.0 90.0 Z M 799.0 75.0 L 797.0 76.0 L 794.0 80.0 L 794.0 199.0 L 795.0 200.0 L 795.0 203.0 L 797.0 207.0 L 802.0 213.0 L 808.0 216.0 L 811.0 216.0 L 812.0 217.0 L 824.0 217.0 L 828.0 215.0 L 830.0 211.0 L 830.0 203.0 L 826.0 198.0 L 824.0 197.0 L 818.0 197.0 L 815.0 193.0 L 815.0 83.0 L 814.0 82.0 L 814.0 79.0 L 811.0 76.0 L 809.0 75.0 Z M 172.0 28.0 L 169.0 28.0 L 165.0 26.0 L 162.0 26.0 L 161.0 25.0 L 158.0 25.0 L 157.0 24.0 L 154.0 24.0 L 153.0 23.0 L 141.0 22.0 L 140.0 21.0 L 130.0 21.0 L 129.0 20.0 L 110.0 20.0 L 109.0 21.0 L 102.0 21.0 L 101.0 22.0 L 91.0 23.0 L 90.0 24.0 L 87.0 24.0 L 86.0 25.0 L 81.0 26.0 L 78.0 28.0 L 76.0 28.0 L 66.0 33.0 L 64.0 35.0 L 60.0 37.0 L 57.0 40.0 L 56.0 40.0 L 44.0 52.0 L 44.0 53.0 L 41.0 56.0 L 38.0 62.0 L 36.0 64.0 L 30.0 76.0 L 30.0 78.0 L 28.0 81.0 L 28.0 83.0 L 26.0 87.0 L 26.0 90.0 L 25.0 91.0 L 24.0 98.0 L 23.0 99.0 L 23.0 104.0 L 22.0 105.0 L 22.0 112.0 L 21.0 113.0 L 21.0 124.0 L 20.0 125.0 L 20.0 136.0 L 21.0 137.0 L 21.0 150.0 L 22.0 151.0 L 23.0 162.0 L 24.0 163.0 L 24.0 167.0 L 26.0 171.0 L 27.0 178.0 L 28.0 179.0 L 29.0 184.0 L 31.0 187.0 L 31.0 189.0 L 34.0 194.0 L 34.0 196.0 L 36.0 198.0 L 40.0 207.0 L 42.0 209.0 L 43.0 212.0 L 45.0 214.0 L 47.0 218.0 L 62.0 234.0 L 63.0 234.0 L 66.0 237.0 L 67.0 237.0 L 69.0 239.0 L 72.0 240.0 L 74.0 242.0 L 78.0 244.0 L 80.0 244.0 L 83.0 246.0 L 86.0 246.0 L 87.0 247.0 L 91.0 247.0 L 92.0 248.0 L 107.0 248.0 L 108.0 247.0 L 113.0 247.0 L 114.0 246.0 L 119.0 245.0 L 129.0 240.0 L 135.0 235.0 L 136.0 235.0 L 140.0 231.0 L 141.0 231.0 L 141.0 230.0 L 143.0 229.0 L 156.0 216.0 L 156.0 215.0 L 162.0 209.0 L 163.0 207.0 L 163.0 203.0 L 161.0 201.0 L 161.0 200.0 L 159.0 199.0 L 157.0 195.0 L 153.0 191.0 L 148.0 181.0 L 148.0 178.0 L 147.0 177.0 L 147.0 168.0 L 148.0 167.0 L 148.0 165.0 L 151.0 159.0 L 156.0 154.0 L 162.0 151.0 L 164.0 151.0 L 165.0 150.0 L 175.0 149.0 L 176.0 150.0 L 183.0 150.0 L 184.0 151.0 L 187.0 151.0 L 188.0 152.0 L 192.0 152.0 L 193.0 151.0 L 195.0 151.0 L 198.0 148.0 L 203.0 138.0 L 205.0 136.0 L 215.0 116.0 L 215.0 114.0 L 219.0 107.0 L 219.0 105.0 L 221.0 102.0 L 221.0 100.0 L 222.0 99.0 L 222.0 97.0 L 224.0 93.0 L 224.0 89.0 L 225.0 88.0 L 225.0 72.0 L 224.0 71.0 L 223.0 65.0 L 220.0 59.0 L 218.0 57.0 L 218.0 56.0 L 209.0 47.0 L 208.0 47.0 L 202.0 42.0 L 199.0 41.0 L 197.0 39.0 L 195.0 39.0 L 193.0 37.0 L 189.0 35.0 L 187.0 35.0 L 182.0 32.0 L 180.0 32.0 Z" fill="#0F6B4F" fill-rule="evenodd"/>
</svg>
